<svg width="32" height="32" viewBox="0 0 32 32" fill="none" xmlns="http://www.w3.org/2000/svg">
<path d="M16 2.66669C8.64002 2.66669 2.66669 8.64002 2.66669 16C2.66669 23.36 8.64002 29.3334 16 29.3334H22.6667V26.6667H16C10.2134 26.6667 5.33335 21.7867 5.33335 16C5.33335 10.2134 10.2134 5.33335 16 5.33335C21.7867 5.33335 26.6667 10.2134 26.6667 16V17.9067C26.6667 18.96 25.72 20 24.6667 20C23.6134 20 22.6667 18.96 22.6667 17.9067V16C22.6667 12.32 19.68 9.33335 16 9.33335C12.32 9.33335 9.33335 12.32 9.33335 16C9.33335 19.68 12.32 22.6667 16 22.6667C17.84 22.6667 19.52 21.92 20.72 20.7067C21.5867 21.8934 23.08 22.6667 24.6667 22.6667C27.2934 22.6667 29.3334 20.5334 29.3334 17.9067V16C29.3334 8.64002 23.36 2.66669 16 2.66669ZM16 20C13.7867 20 12 18.2134 12 16C12 13.7867 13.7867 12 16 12C18.2134 12 20 13.7867 20 16C20 18.2134 18.2134 20 16 20Z" fill="#F0EFED"/>
</svg>
