<svg width="238" height="32" viewBox="0 0 238 32" fill="none" xmlns="http://www.w3.org/2000/svg">
<path d="M43.008 9.272H58.752L50.88 26.336L43.008 9.272ZM50.88 24.224L57.384 10.16H44.4L50.88 24.224ZM74.0696 9.296V10.184H69.0776V25.112H74.0696V26H63.2456V25.112H68.2136V10.184H63.2456V9.296H74.0696ZM80.6753 19.616C80.6753 20.672 80.9393 21.648 81.4673 22.544C82.0113 23.44 82.7313 24.152 83.6273 24.68C84.5393 25.208 85.5233 25.472 86.5793 25.472C87.6673 25.472 88.6513 25.256 89.5312 24.824C90.4113 24.392 91.0993 23.792 91.5953 23.024C92.1073 22.256 92.3713 21.392 92.3873 20.432H93.2513C93.2513 21.536 92.9553 22.544 92.3633 23.456C91.7873 24.352 90.9873 25.064 89.9633 25.592C88.9553 26.104 87.8273 26.36 86.5793 26.36C85.3633 26.36 84.2353 26.056 83.1953 25.448C82.1553 24.84 81.3313 24.024 80.7233 23C80.1153 21.96 79.8113 20.832 79.8113 19.616V15.68C79.8113 14.464 80.1073 13.344 80.6992 12.32C81.3073 11.28 82.1233 10.456 83.1473 9.848C84.1873 9.24 85.3153 8.936 86.5313 8.936C87.7633 8.936 88.8833 9.2 89.8913 9.728C90.9153 10.24 91.7233 10.952 92.3153 11.864C92.9073 12.76 93.2033 13.76 93.2033 14.864H92.3393C92.3233 13.904 92.0593 13.04 91.5473 12.272C91.0353 11.504 90.3393 10.904 89.4593 10.472C88.5953 10.04 87.6193 9.824 86.5313 9.824C85.4753 9.824 84.4993 10.088 83.6033 10.616C82.7073 11.144 81.9953 11.856 81.4673 12.752C80.9393 13.648 80.6753 14.624 80.6753 15.68V19.616ZM110.921 9.296V10.184H104.609V26H103.745V10.184H97.4329V9.296H110.921ZM121.943 8.936C123.191 8.936 124.343 9.248 125.398 9.872C126.455 10.48 127.287 11.312 127.895 12.368C128.519 13.424 128.831 14.576 128.831 15.824V19.472C128.831 20.72 128.519 21.872 127.895 22.928C127.287 23.984 126.455 24.824 125.398 25.448C124.343 26.056 123.191 26.36 121.943 26.36C120.695 26.36 119.543 26.056 118.487 25.448C117.431 24.824 116.591 23.984 115.967 22.928C115.359 21.872 115.055 20.72 115.055 19.472V15.824C115.055 14.576 115.359 13.424 115.967 12.368C116.591 11.312 117.431 10.48 118.487 9.872C119.543 9.248 120.695 8.936 121.943 8.936ZM115.943 19.472C115.943 20.56 116.207 21.568 116.735 22.496C117.279 23.408 118.007 24.136 118.919 24.68C119.847 25.208 120.855 25.472 121.943 25.472C123.031 25.472 124.031 25.208 124.943 24.68C125.871 24.136 126.599 23.408 127.127 22.496C127.671 21.568 127.943 20.56 127.943 19.472V15.824C127.943 14.736 127.671 13.736 127.127 12.824C126.599 11.896 125.871 11.168 124.943 10.64C124.031 10.096 123.031 9.824 121.943 9.824C120.855 9.824 119.847 10.096 118.919 10.64C118.007 11.168 117.279 11.896 116.735 12.824C116.207 13.736 115.943 14.736 115.943 15.824V19.472ZM143.332 9.848C144.292 10.296 145.044 10.96 145.588 11.84C146.148 12.72 146.428 13.696 146.428 14.768C146.428 16.016 146.044 17.136 145.276 18.128C144.524 19.104 143.556 19.752 142.372 20.072L146.62 26H145.564L141.46 20.24L140.692 20.264H134.668V26H133.78V9.296H140.14C140.844 9.296 141.444 9.344 141.94 9.44C142.452 9.52 142.916 9.656 143.332 9.848ZM140.932 19.376C141.764 19.376 142.532 19.168 143.236 18.752C143.94 18.336 144.5 17.776 144.916 17.072C145.332 16.368 145.54 15.6 145.54 14.768C145.54 13.84 145.292 13 144.796 12.248C144.316 11.496 143.644 10.936 142.78 10.568C142.156 10.312 141.276 10.184 140.14 10.184H134.668V19.376H140.932ZM157.354 9.824C156.282 9.824 155.282 10.096 154.354 10.64C153.442 11.168 152.714 11.896 152.17 12.824C151.626 13.736 151.354 14.736 151.354 15.824V18.992C151.354 20.128 151.514 21.064 151.834 21.8C152.282 22.84 152.962 23.688 153.874 24.344C154.786 25 155.81 25.368 156.946 25.448V17.648H164.266V19.232C164.266 20.256 164.114 21.168 163.81 21.968C163.314 23.296 162.482 24.36 161.314 25.16C160.146 25.96 158.826 26.36 157.354 26.36C155.962 26.36 154.69 25.984 153.538 25.232C152.402 24.464 151.57 23.448 151.042 22.184C150.658 21.288 150.466 20.224 150.466 18.992V15.824C150.466 14.576 150.77 13.424 151.378 12.368C152.002 11.312 152.842 10.48 153.898 9.872C154.954 9.248 156.106 8.936 157.354 8.936C158.394 8.936 159.346 9.112 160.21 9.464C161.074 9.8 161.81 10.296 162.418 10.952C162.914 11.496 163.314 12.104 163.618 12.776C163.938 13.448 164.098 14.128 164.098 14.816H163.234C163.218 14.224 163.066 13.64 162.778 13.064C162.506 12.488 162.154 11.968 161.722 11.504C160.65 10.384 159.194 9.824 157.354 9.824ZM163.378 18.512H157.81V25.448C158.962 25.368 159.994 25.008 160.906 24.368C161.834 23.712 162.514 22.848 162.946 21.776C163.234 21.024 163.378 20.176 163.378 19.232V18.512ZM175.239 8.936C176.487 8.936 177.639 9.248 178.695 9.872C179.751 10.48 180.583 11.312 181.191 12.368C181.815 13.424 182.127 14.576 182.127 15.824V19.472C182.127 20.72 181.815 21.872 181.191 22.928C180.583 23.984 179.751 24.824 178.695 25.448C177.639 26.056 176.487 26.36 175.239 26.36C173.991 26.36 172.839 26.056 171.783 25.448C170.727 24.824 169.887 23.984 169.263 22.928C168.655 21.872 168.351 20.72 168.351 19.472V15.824C168.351 14.576 168.655 13.424 169.263 12.368C169.887 11.312 170.727 10.48 171.783 9.872C172.839 9.248 173.991 8.936 175.239 8.936ZM169.239 19.472C169.239 20.56 169.503 21.568 170.031 22.496C170.575 23.408 171.303 24.136 172.215 24.68C173.143 25.208 174.151 25.472 175.239 25.472C176.327 25.472 177.327 25.208 178.239 24.68C179.167 24.136 179.895 23.408 180.423 22.496C180.967 21.568 181.239 20.56 181.239 19.472V15.824C181.239 14.736 180.967 13.736 180.423 12.824C179.895 11.896 179.167 11.168 178.239 10.64C177.327 10.096 176.327 9.824 175.239 9.824C174.151 9.824 173.143 10.096 172.215 10.64C171.303 11.168 170.575 11.896 170.031 12.824C169.503 13.736 169.239 14.736 169.239 15.824V19.472ZM187.149 26H186.261V9.296H187.221L193.053 19.592L198.861 9.296H199.749V26H198.861V11.072L193.461 20.6H192.621L187.149 10.952V26ZM209.307 17.336L214.491 10.232H205.947V9.344H215.595V10.232L211.779 15.44C212.627 15.6 213.387 15.936 214.059 16.448C214.747 16.96 215.283 17.6 215.667 18.368C216.067 19.136 216.267 19.96 216.267 20.84C216.267 21.832 216.019 22.752 215.523 23.6C215.027 24.448 214.355 25.12 213.507 25.616C212.675 26.112 211.763 26.36 210.771 26.36C209.779 26.36 208.859 26.112 208.011 25.616C207.179 25.12 206.515 24.448 206.019 23.6C205.523 22.752 205.275 21.832 205.275 20.84H206.139C206.139 21.672 206.347 22.448 206.763 23.168C207.179 23.872 207.739 24.432 208.443 24.848C209.163 25.264 209.939 25.472 210.771 25.472C211.603 25.472 212.371 25.264 213.075 24.848C213.795 24.432 214.363 23.872 214.779 23.168C215.195 22.448 215.403 21.672 215.403 20.84C215.403 20.056 215.211 19.328 214.827 18.656C214.459 17.984 213.947 17.432 213.291 17C212.651 16.568 211.947 16.32 211.179 16.256L210.027 17.84L209.307 17.336ZM228.896 18.008C227.536 17.736 226.424 17.44 225.56 17.12C224.712 16.784 224.04 16.336 223.544 15.776C223.064 15.2 222.824 14.464 222.824 13.568C222.824 12.64 223.064 11.824 223.544 11.12C224.04 10.416 224.728 9.872 225.608 9.488C226.504 9.104 227.536 8.912 228.704 8.912C229.824 8.912 230.848 9.152 231.776 9.632C232.72 10.096 233.464 10.752 234.008 11.6C234.552 12.448 234.824 13.416 234.824 14.504H233.936C233.936 13.56 233.704 12.728 233.24 12.008C232.776 11.288 232.144 10.736 231.344 10.352C230.544 9.952 229.656 9.752 228.68 9.752C227.816 9.752 227.008 9.888 226.256 10.16C225.504 10.432 224.888 10.848 224.408 11.408C223.944 11.968 223.712 12.672 223.712 13.52C223.712 14.288 223.936 14.904 224.384 15.368C224.832 15.816 225.416 16.16 226.136 16.4C226.856 16.64 227.864 16.896 229.16 17.168C230.472 17.44 231.488 17.704 232.208 17.96C232.944 18.2 233.56 18.608 234.056 19.184C234.568 19.76 234.824 20.568 234.824 21.608C234.824 22.648 234.544 23.528 233.984 24.248C233.44 24.952 232.712 25.48 231.8 25.832C230.888 26.184 229.896 26.36 228.824 26.36C227.496 26.36 226.328 26.112 225.32 25.616C224.312 25.12 223.536 24.424 222.992 23.528C222.464 22.616 222.2 21.576 222.2 20.408H223.088C223.088 21.432 223.312 22.328 223.76 23.096C224.224 23.864 224.888 24.464 225.752 24.896C226.616 25.312 227.64 25.52 228.824 25.52C230.296 25.52 231.512 25.168 232.472 24.464C233.448 23.76 233.936 22.8 233.936 21.584C233.936 20.752 233.728 20.112 233.312 19.664C232.896 19.216 232.368 18.896 231.728 18.704C231.104 18.496 230.16 18.264 228.896 18.008Z" fill="#F0EFED"/>
<path d="M9.53018 22.7229L4.30135 15.9971L9.52765 9.27698L10.7598 10.2352L6.27867 15.9973L10.7626 21.7649L9.53018 22.7229Z" fill="#F0EFED"/>
<path d="M21.24 21.765L25.7214 16L21.2376 10.2353L22.4697 9.27698L27.6987 15.9997L22.4725 22.7229L21.24 21.765Z" fill="#F0EFED"/>
<path d="M12.3645 4.29272H13.9728L19.7834 27.7074H18.175L12.3645 4.29272Z" fill="#F0EFED"/>
<circle cx="16" cy="16" r="15.5" stroke="#F0EFED"/>
</svg>
