<svg width="32" height="32" viewBox="0 0 32 32" fill="none" xmlns="http://www.w3.org/2000/svg">
<path d="M9.53022 22.7229L4.30139 15.9971L9.52769 9.27698L10.7598 10.2352L6.27871 15.9973L10.7626 21.7649L9.53022 22.7229Z" fill="#FF5C00"/>
<path d="M21.2399 21.765L25.7213 16L21.2375 10.2353L22.4696 9.27698L27.6986 15.9997L22.4724 22.7229L21.2399 21.765Z" fill="#FF5C00"/>
<path d="M12.3645 4.29272H13.9728L19.7834 27.7074H18.175L12.3645 4.29272Z" fill="#FF5C00"/>
<path d="M16 31.5C24.5604 31.5 31.5 24.5604 31.5 16C31.5 7.43959 24.5604 0.5 16 0.5C7.43959 0.5 0.5 7.43959 0.5 16C0.5 24.5604 7.43959 31.5 16 31.5Z" stroke="#FF5C00"/>
</svg>
