<svg width="32" height="32" viewBox="0 0 32 32" fill="none" xmlns="http://www.w3.org/2000/svg">
<g clip-path="url(#clip0)">
<path d="M31.959 16.421C31.959 19.754 30.818 22.713 28.49 25.328C27.646 26.303 26.97 26.765 26.511 26.765C26.35 26.765 26.167 26.718 26.047 26.598C25.923 26.4736 25.8524 26.3057 25.85 26.13C25.85 25.879 26.146 25.499 26.746 24.947C29.162 22.63 30.381 19.754 30.381 16.338C30.381 12.541 29.126 9.46905 26.626 7.08705C26.131 6.63505 25.865 6.25405 25.865 5.95205C25.865 5.79605 25.949 5.61305 26.084 5.49305C26.2107 5.37488 26.375 5.30513 26.548 5.29605C27.105 5.29605 27.949 5.97205 29.007 7.33205C31.002 9.86805 32.002 12.925 32.002 16.457L31.959 16.421ZM0 15.579C0 12.246 1.14 9.28705 3.464 6.66705C4.312 5.69805 4.989 5.23505 5.453 5.23505C5.609 5.23505 5.792 5.27605 5.912 5.40205C6.031 5.52705 6.109 5.65105 6.109 5.81805C6.109 6.06905 5.806 6.45405 5.208 7.04205C2.839 9.37005 1.593 12.235 1.593 15.657C1.593 19.454 2.864 22.537 5.36 24.908C5.864 25.365 6.115 25.751 6.115 26.043C6.11321 26.1316 6.0934 26.2188 6.05678 26.2995C6.02016 26.3801 5.96749 26.4524 5.902 26.512C5.77792 26.6387 5.61014 26.7131 5.433 26.72C4.856 26.72 4.058 26.043 2.996 24.699C0.98 22.204 0.001 19.163 0.001 15.58L0 15.579ZM23.599 24.735H8.954C8.71881 24.7348 8.49323 24.6417 8.32637 24.4759C8.1595 24.3102 8.06485 24.0852 8.063 23.85C8.063 23.339 8.443 22.959 8.954 22.959H23.599C24.063 22.959 24.49 23.339 24.49 23.85C24.479 24.361 24.105 24.735 23.599 24.735ZM15.599 12.844C15.86 12.807 16.058 13.661 16.079 13.844C16.14 14.312 15.984 14.765 15.771 15.177C14.974 16.734 13.136 17.984 13.626 19.948C13.845 20.792 14.282 21.38 15.641 22.104C15.184 22.26 14.542 21.959 14.184 21.703C12.585 20.615 11.569 18.828 11.668 16.875C11.7114 16.2582 11.8176 15.6473 11.985 15.052C12.485 13.344 13.506 11.855 14.1 10.193C14.403 9.39005 14.621 8.42605 14.381 7.58805C14.2547 7.17104 14.0437 6.78462 13.761 6.45305C13.684 6.35405 13.225 5.83305 13.042 5.89605C13.845 5.59305 14.563 5.87505 15.261 6.29205C15.798 6.61505 16.22 7.07305 16.537 7.59305C17.137 8.55205 17.376 9.65005 17.496 10.765C17.537 11.229 17.48 12.349 18.017 12.568C18.58 12.807 19.017 11.869 19.137 11.489C19.397 10.63 19.058 9.80605 18.72 9.01005C18.799 9.17105 19.1 9.34905 19.236 9.47305L19.715 9.93205C20.299 10.531 20.658 11.271 20.898 12.068C21.117 12.787 21.215 13.527 21.257 14.245C21.357 15.745 21.018 17.286 20.418 18.661C20.1662 19.2805 19.8146 19.8544 19.377 20.36C18.956 20.855 18.382 21.177 17.924 21.636C18.997 20.557 19.576 18.797 19.419 17.459C19.3499 16.6864 19.0424 15.9543 18.539 15.364C18.539 15.364 18.602 15.844 18.659 16.14C18.758 16.803 18.315 17.5 17.8 17.421C17.419 17.38 17.617 16.562 17.659 16.302C17.8 15.526 17.618 14.765 17.331 14.046C17.055 13.363 16.534 12.827 15.738 12.947L15.599 12.844Z" fill="#F0EFED"/>
</g>
<defs>
<clipPath id="clip0">
<rect width="32" height="32" fill="white"/>
</clipPath>
</defs>
</svg>
