<svg width="777" height="413" viewBox="0 0 777 413" fill="none" xmlns="http://www.w3.org/2000/svg">
<g clip-path="url(#clip0)">
<path opacity="0.1" d="M717.426 326.58C716.56 328.443 715.697 330.282 714.837 332.095C713.494 334.912 712.168 337.675 710.86 340.382C710.278 341.582 709.696 342.76 709.129 343.937C702.712 357.032 696.72 368.613 691.631 378.137C687.013 386.767 680.157 393.998 671.78 399.072C663.403 404.147 653.814 406.877 644.018 406.979L530.862 408.208H529.668L519.967 408.313L511.67 408.402L486.226 408.678H485.196L472.243 408.82H471.847L392.007 409.684L320.741 410.429L312.451 410.519L260.965 411.078H260.905L227.514 411.435H227.156L121.573 412.576L89.988 412.918C83.2477 412.995 76.5357 412.034 70.0877 410.072C58.8669 406.686 48.7827 400.309 40.92 391.626C27.3546 376.699 17.4679 359.282 10.827 340.382C9.86695 337.655 8.97155 334.892 8.14081 332.095C-14.8486 254.477 13.1775 154.336 63.6184 87.3224C65.7326 84.5202 67.8815 81.7876 70.0653 79.1246L70.1176 79.065C85.6304 60.046 103.024 44.157 121.551 32.8589C154.382 12.804 190.758 7.15496 226.537 23.9904C256.809 38.2397 285.074 44.9396 312.473 46.758C315.241 46.9369 318.01 47.071 320.763 47.153C383.613 49.1279 442.515 26.5093 511.685 11.9097C514.438 11.3284 517.199 10.7546 519.982 10.2105C569.327 0.402911 624.065 -4.76918 689.161 6.10414C695.924 7.20762 702.598 8.80172 709.129 10.8738C711.999 11.7979 714.765 12.7916 717.426 13.8548C748.496 26.4795 765.442 49.8061 772.642 79.0351C773.324 81.7479 773.913 84.5078 774.411 87.315C787.178 157.623 749.787 257.353 717.426 326.58Z" fill="#FA7D09"/>
<g opacity="0.1">
<path opacity="0.1" d="M121.551 32.8585V412.657L89.9655 413C83.2252 413.076 76.5132 412.116 70.0652 410.153V79.0646H70.1175C85.6303 60.0232 103.023 44.1343 121.551 32.8585Z" fill="#FA7D09"/>
<path opacity="0.1" d="M774.448 87.322H63.6183C65.7325 84.5198 67.8814 81.7872 70.0652 79.1242V79.0646H772.68C773.361 81.7624 773.951 84.5149 774.448 87.322Z" fill="#FA7D09"/>
<path opacity="0.1" d="M717.426 13.8619V332.087H714.837C713.494 334.904 712.168 337.667 710.86 340.375C710.278 341.574 709.696 342.752 709.129 343.93V10.8511C711.999 11.7752 714.765 12.7788 717.426 13.8619Z" fill="#FA7D09"/>
<path opacity="0.1" d="M519.982 10.1877V408.342L511.685 408.432V11.8869C514.438 11.3056 517.199 10.7318 519.982 10.1877Z" fill="#FA7D09"/>
<path opacity="0.1" d="M320.763 47.1302V410.503L312.473 410.593V46.7352C315.241 46.9141 318.009 47.0184 320.763 47.1302Z" fill="#FA7D09"/>
<path opacity="0.1" d="M714.837 332.095C713.494 334.912 712.168 337.674 710.86 340.382H10.8269C9.86685 337.654 8.97145 334.892 8.14072 332.095H714.837Z" fill="#FA7D09"/>
</g>
<path d="M172.066 198.112H157.889V241.084H172.066V198.112Z" fill="#3F3D56"/>
<path d="M553.605 195.876H539.428V241.337H553.605V195.876Z" fill="#3F3D56"/>
<path d="M644.018 397.707V407.396L530.66 408.439L529.451 408.461L486.367 408.856L485.338 408.871L472.243 408.983H471.854L392.029 409.721L260.995 410.936H260.883L227.566 411.249L227.208 411.256L79.1685 412.613V401.434L113.977 380.566L183.819 379.985L185.311 379.978L185.803 379.97L187.296 379.948L220.829 379.672L222.328 379.665L222.806 379.657L224.298 379.65L235.05 379.56L235.334 379.553L261.86 379.329H262.077L469.064 377.585L474.13 377.548H474.638L478.503 377.511L506.596 377.28L508.088 377.258L509.469 377.243H510.185L518.923 377.176L520.654 377.153L522.974 377.138L530.25 377.071L541.793 376.974L543.285 376.959L545.882 376.945H546.367L602.113 376.468L644.018 397.707Z" fill="#65617D"/>
<path opacity="0.2" d="M644.018 397.707V407.396L530.66 408.439L529.451 408.461L486.367 408.856L485.338 408.871L472.243 408.983H471.854L392.029 409.721L260.995 410.936H260.883L227.566 411.249L227.208 411.256L79.1685 412.613V401.434L113.977 380.566L183.819 379.985L185.311 379.978L185.803 379.97L187.296 379.948L220.829 379.672L222.328 379.665L222.806 379.657L224.298 379.65L235.05 379.56L235.334 379.553L261.86 379.329H262.077L469.064 377.585L474.13 377.548H474.638L478.503 377.511L506.596 377.28L508.088 377.258L509.469 377.243H510.185L518.923 377.176L520.654 377.153L522.974 377.138L530.25 377.071L541.793 376.974L543.285 376.959L545.882 376.945H546.367L602.113 376.468L644.018 397.707Z" fill="#4A3F35"/>
<path d="M220.94 360.452V378.703C220.941 379.568 220.696 380.415 220.233 381.145C219.771 381.876 219.111 382.461 218.329 382.832C217.747 383.114 217.11 383.266 216.463 383.279L190.422 383.831C189.727 383.847 189.037 383.702 188.408 383.406C187.612 383.042 186.938 382.457 186.466 381.721C185.993 380.985 185.743 380.129 185.744 379.255V360.452H220.94Z" fill="#3F3D56"/>
<path opacity="0.1" d="M220.94 360.452V378.703C220.941 379.568 220.696 380.415 220.233 381.145C219.771 381.876 219.111 382.461 218.329 382.832C217.747 383.114 217.11 383.266 216.463 383.279L190.422 383.831C189.727 383.847 189.037 383.702 188.408 383.406C187.612 383.042 186.938 382.457 186.466 381.721C185.993 380.985 185.743 380.129 185.744 379.255V360.452H220.94Z" fill="#4A3F35"/>
<path d="M222.433 360.452V378.703C222.433 379.568 222.188 380.415 221.726 381.145C221.263 381.876 220.603 382.461 219.821 382.832C219.239 383.114 218.603 383.266 217.956 383.279L191.915 383.831C191.219 383.847 190.529 383.702 189.9 383.406C189.104 383.042 188.43 382.457 187.958 381.721C187.486 380.985 187.235 380.129 187.236 379.255V360.452H222.433Z" fill="#3F3D56"/>
<path d="M543.285 360.452H508.088V383.928H543.285V360.452Z" fill="#3F3D56"/>
<path opacity="0.1" d="M543.285 360.452H508.088V383.928H543.285V360.452Z" fill="#4A3F35"/>
<path d="M541.793 360.452H506.596V383.928H541.793V360.452Z" fill="#3F3D56"/>
<path opacity="0.1" d="M172.066 198.105V202.375L157.889 202.01V198.105H172.066Z" fill="#4A3F35"/>
<path d="M265.382 77.805L248.347 200.027C248.239 200.808 247.847 201.522 247.245 202.032C246.644 202.542 245.875 202.813 245.086 202.792L108.687 199.26L106.098 199.193C105.647 199.182 105.203 199.077 104.796 198.883C104.389 198.69 104.027 198.413 103.734 198.07C103.441 197.728 103.224 197.328 103.096 196.896C102.969 196.464 102.934 196.01 102.994 195.563L122.118 67.6173C122.241 66.8248 122.658 66.1072 123.285 65.6063C123.912 65.1055 124.704 64.8577 125.506 64.912L262.398 74.1681C262.839 74.1937 263.271 74.3104 263.665 74.5109C264.059 74.7114 264.408 74.9914 264.688 75.3331C264.968 75.6749 265.175 76.071 265.294 76.4964C265.414 76.9219 265.444 77.3674 265.382 77.805Z" fill="#65617D"/>
<path d="M131.273 73.8999L116.85 186.68L242.206 190.652L257.622 81.8444L131.273 73.8999Z" fill="#FA7D09"/>
<path d="M435.718 72.156H290.953C288.757 72.156 286.976 73.9344 286.976 76.1282V197.359C286.976 199.553 288.757 201.332 290.953 201.332H435.718C437.914 201.332 439.695 199.553 439.695 197.359V76.1282C439.695 73.9344 437.914 72.156 435.718 72.156Z" fill="#65617D"/>
<path d="M432.972 80.8531H294.184V188.416H432.972V80.8531Z" fill="#FA7D09"/>
<path opacity="0.1" d="M553.605 195.869V198.693L539.428 198.984V195.869H553.605Z" fill="#4A3F35"/>
<path d="M617.574 193.484C617.594 193.793 617.551 194.102 617.449 194.394C617.346 194.686 617.185 194.955 616.976 195.183C616.767 195.411 616.514 195.595 616.232 195.723C615.95 195.851 615.645 195.921 615.335 195.928L475.652 198.813C475.072 198.825 474.509 198.617 474.076 198.231C473.643 197.846 473.371 197.31 473.317 196.733L461.311 72.0665C461.282 71.7572 461.315 71.4451 461.41 71.1491C461.504 70.8532 461.658 70.5795 461.862 70.3446C462.066 70.1098 462.315 69.9187 462.595 69.783C462.875 69.6473 463.179 69.5697 463.49 69.5549L602.113 62.6688L603.605 62.5942C604.199 62.563 604.781 62.7632 605.229 63.1525C605.677 63.5418 605.957 64.0899 606.008 64.681L617.574 193.484Z" fill="#65617D"/>
<path d="M469.288 76.8809L595.89 70.6654L606.583 183.945L480.98 186.926L469.288 76.8809Z" fill="#FA7D09"/>
<path opacity="0.1" d="M617.574 193.484C617.594 193.793 617.551 194.102 617.449 194.394C617.346 194.686 617.185 194.955 616.976 195.183C616.767 195.411 616.514 195.595 616.232 195.723C615.95 195.851 615.645 195.921 615.335 195.928L602.113 62.6688L603.605 62.5942C604.199 62.563 604.781 62.7632 605.229 63.1525C605.677 63.5418 605.957 64.0899 606.008 64.681L617.574 193.484Z" fill="#4A3F35"/>
<path opacity="0.1" d="M125.528 64.9046L108.687 199.26L106.098 199.193C105.647 199.182 105.203 199.077 104.796 198.883C104.389 198.69 104.027 198.413 103.734 198.07C103.441 197.728 103.224 197.328 103.096 196.896C102.969 196.464 102.934 196.01 102.994 195.563L122.118 67.6173C122.24 66.8193 122.659 66.0966 123.291 65.5937C123.923 65.0908 124.722 64.8447 125.528 64.9046Z" fill="#4A3F35"/>
<path opacity="0.1" d="M172.066 228.355H157.889V241.084H172.066V228.355Z" fill="#4A3F35"/>
<path opacity="0.1" d="M222.433 360.444V364.148L187.236 365.087V360.444H222.433Z" fill="#4A3F35"/>
<path d="M284.551 232.789V358.142C284.542 358.907 284.239 359.639 283.704 360.187C283.169 360.735 282.444 361.057 281.679 361.085L138.675 364.886H138.638C137.859 364.876 137.115 364.563 136.565 364.013C136.014 363.463 135.7 362.72 135.691 361.942V232.789C135.7 232.011 136.014 231.268 136.565 230.718C137.115 230.168 137.859 229.855 138.638 229.845H281.604C282.383 229.855 283.127 230.168 283.677 230.718C284.228 231.268 284.542 232.011 284.551 232.789Z" fill="#65617D"/>
<path opacity="0.1" d="M138.675 229.845V364.886H138.638C137.859 364.876 137.115 364.563 136.565 364.013C136.014 363.463 135.7 362.72 135.691 361.942V232.789C135.7 232.011 136.014 231.268 136.565 230.718C137.115 230.168 137.859 229.855 138.638 229.845H138.675Z" fill="#4A3F35"/>
<path d="M145.204 237.849H277.649V348.334L145.204 351.315V237.849Z" fill="#D4DFEC"/>
<path opacity="0.1" d="M553.605 228.355H539.428V241.337H553.605V228.355Z" fill="#4A3F35"/>
<path opacity="0.1" d="M541.793 360.444V365.221L506.596 364.282V360.444H541.793Z" fill="#4A3F35"/>
<path d="M588.242 232.789V361.942C588.232 362.727 587.913 363.475 587.355 364.026C586.796 364.577 586.042 364.886 585.257 364.886L442.224 361.085C441.458 361.057 440.733 360.735 440.198 360.187C439.664 359.639 439.36 358.907 439.351 358.142V232.789C439.361 232.011 439.675 231.268 440.225 230.718C440.776 230.168 441.52 229.855 442.299 229.845H585.265C586.049 229.847 586.8 230.157 587.357 230.708C587.914 231.259 588.232 232.006 588.242 232.789Z" fill="#65617D"/>
<path opacity="0.1" d="M588.242 232.789V361.942C588.232 362.727 587.913 363.475 587.355 364.026C586.796 364.577 586.042 364.886 585.257 364.886V229.845C586.042 229.845 586.796 230.154 587.355 230.705C587.913 231.256 588.232 232.005 588.242 232.789Z" fill="#4A3F35"/>
<path d="M578.728 237.849H446.283V348.334L578.728 351.315V237.849Z" fill="#D4DFEC"/>
<path d="M435.65 232.789V358.142C435.641 358.907 435.338 359.639 434.803 360.187C434.269 360.735 433.543 361.057 432.778 361.085L289.774 364.886C288.989 364.886 288.236 364.577 287.677 364.026C287.118 363.475 286.8 362.727 286.79 361.942V232.789C286.799 232.011 287.113 231.268 287.664 230.718C288.214 230.168 288.959 229.855 289.737 229.845H432.703C433.482 229.855 434.226 230.168 434.776 230.718C435.327 231.268 435.641 232.011 435.65 232.789Z" fill="#65617D"/>
<path d="M296.303 237.849H428.748V348.334L296.303 351.315V237.849Z" fill="#D4DFEC"/>
<path opacity="0.1" d="M644.018 397.707V407.396L530.66 408.439L529.451 408.461L486.367 408.856L485.338 408.871L472.243 408.983H471.854L392.029 409.721L260.995 410.936H260.883L227.566 411.249L227.208 411.256L79.1685 412.612V401.434L230.275 400.442H230.633L261.219 400.234H261.36L472.586 398.84H472.802L472.929 398.833H473.28L476.854 398.81H477.943L533.525 398.438L536.808 398.423L537.54 398.415L644.018 397.707Z" fill="#4A3F35"/>
<path d="M363.578 241.084C384.731 241.084 401.879 223.957 401.879 202.83C401.879 181.702 384.731 164.575 363.578 164.575C342.425 164.575 325.277 181.702 325.277 202.83C325.277 223.957 342.425 241.084 363.578 241.084Z" fill="#FBBEBE"/>
<path d="M401.886 281.082C401.886 281.082 327.643 290.025 334.731 281.082C337.298 277.847 338.007 268.263 337.865 257.345C337.82 254.029 337.701 250.593 337.529 247.173C336.708 230.777 334.731 214.754 334.731 214.754C334.731 214.754 399.648 184.198 392.186 208.419C389.201 218.204 390.179 231.947 392.447 244.847C393.111 248.611 393.88 252.3 394.686 255.803C396.652 264.346 399.056 272.784 401.886 281.082Z" fill="#B87D7D"/>
<path opacity="0.1" d="M401.886 281.082C401.886 281.082 327.643 290.025 334.731 281.082C337.298 277.847 338.007 268.263 337.865 257.345C349.184 252.516 363.585 256.116 363.585 256.116C378.748 253.097 388.47 253.686 394.686 255.803C396.652 264.346 399.056 272.784 401.886 281.082Z" fill="#4A3F35"/>
<path d="M260.965 411.778V411.152L392.007 409.728L471.847 408.983H472.071L471.989 410.086L472.101 408.983H472.242V408.856L473.265 398.833L473.653 395.039L473.772 393.854L473.876 392.863L478.488 377.503L483.099 362.166L486.979 349.251L492.904 329.516C492.904 329.516 489.546 321.691 487.681 319.455C485.815 317.219 483.95 301.942 483.95 301.942C483.95 301.942 468.027 286.791 461.065 285.047C458.147 284.301 452.387 283.31 446.268 282.066C443.978 281.604 441.627 281.112 439.366 280.575C438.09 280.284 436.837 279.979 435.635 279.673C433.297 279.09 430.993 278.378 428.733 277.542C427.549 277.112 426.421 276.539 425.376 275.835C419.891 271.818 406.147 271.364 405.617 271.364C405.616 271.346 405.616 271.329 405.617 271.311V271.244C405.636 270.932 405.636 270.618 405.617 270.305C405.617 270.007 405.617 269.657 405.55 269.262C405.55 269.143 405.55 269.016 405.498 268.889C405.46 268.621 405.416 268.338 405.348 268.04C405.326 267.907 405.296 267.775 405.259 267.645C405.043 266.747 404.73 265.875 404.326 265.044C404.274 264.925 404.207 264.798 404.147 264.679C403.781 263.99 403.357 263.334 402.879 262.719C402.782 262.592 402.677 262.458 402.565 262.331C401.954 261.611 401.274 260.952 400.536 260.364C400.334 260.207 400.125 260.043 399.909 259.894C399.788 259.796 399.661 259.707 399.528 259.626L398.864 259.194L398.245 258.836C397.7 258.538 397.126 258.247 396.499 257.971C396.305 257.882 396.096 257.8 395.887 257.718C395.678 257.636 395.35 257.509 395.074 257.405H395.029L394.469 257.181C394.044 257.04 393.611 256.913 393.156 256.786L392.462 256.607L391.716 256.436L390.97 256.28C390.224 256.131 389.425 255.996 388.589 255.892L387.739 255.788L386.866 255.698L385.963 255.624L384.68 255.549L383.187 255.497C376.605 255.496 370.042 256.193 363.608 257.576C359.138 256.583 354.559 256.162 349.983 256.324H349.334L348.587 256.369H348.11L347.147 256.458C346.826 256.458 346.498 256.526 346.177 256.57C345.856 256.615 345.521 256.652 345.2 256.704L344.707 256.786C344.222 256.868 343.73 256.958 343.215 257.062C343.051 257.092 342.887 257.129 342.723 257.174C342.073 257.316 341.424 257.487 340.783 257.681C340.462 257.77 340.141 257.874 339.82 257.986C339.656 258.031 339.499 258.091 339.342 258.15L338.865 258.322L338.395 258.508L337.835 258.732C337.552 258.851 337.276 258.977 336.999 259.112C336.843 259.179 336.686 259.253 336.537 259.335C336.388 259.417 336.231 259.484 336.089 259.566C334.402 260.437 332.843 261.535 331.455 262.83L331.075 263.196L330.702 263.576C330.575 263.702 330.456 263.837 330.336 263.971C329.85 264.502 329.396 265.062 328.978 265.647C328.859 265.804 328.747 265.961 328.635 266.124C328.161 266.822 327.733 267.549 327.351 268.301C327.254 268.479 327.165 268.666 327.075 268.845C326.466 270.104 325.967 271.413 325.583 272.757C325.444 273.254 325.317 273.751 325.203 274.248C325.203 274.248 309.406 281.209 296.303 286.246C292.819 287.588 289.536 288.803 286.79 289.719C285.991 289.988 285.245 290.234 284.551 290.465C283.046 291.008 281.48 291.369 279.888 291.538C279.137 291.55 278.389 291.62 277.649 291.746C271.628 292.723 261.308 296.963 260.181 301.219C260.09 301.559 260.065 301.913 260.107 302.262C260.107 302.262 260.107 302.314 260.107 302.344C260.853 307.561 255.63 306.816 255.63 306.816C255.63 306.816 253.764 320.603 251.153 324.329C249.265 327.012 247.974 332.997 247.81 337.513C247.716 338.92 247.827 340.333 248.138 341.709C248.138 341.746 248.138 341.783 248.138 341.813C248.437 342.812 247.72 345.539 246.504 349.035C245.183 352.873 243.258 357.642 241.408 362.144C238.617 368.94 235.991 375.111 235.827 376.467C235.759 377.071 235.565 378.152 235.297 379.545C234.207 385.224 231.79 396.038 230.596 400.413C229.708 403.677 228.417 408.148 227.529 411.219C227.529 411.308 227.477 411.398 227.455 411.48L260.905 411.152V411.778H261.01H260.965Z" fill="#FA7D09"/>
<path opacity="0.1" d="M273.172 323.934C273.172 323.934 315.704 345.919 331 343.311L273.172 323.934Z" fill="#4A3F35"/>
<path opacity="0.1" d="M359.728 314.991C359.728 314.991 401.14 328.406 414.944 330.269C428.748 332.132 359.728 314.991 359.728 314.991Z" fill="#4A3F35"/>
<path opacity="0.1" d="M405.662 271.826C384.023 275.805 343.282 274.948 325.673 274.345C332.127 251.242 363.6 259.097 363.6 259.097C402.558 251.331 405.543 267.444 405.662 271.826Z" fill="#4A3F35"/>
<path d="M405.662 270.335C384.023 274.315 343.282 273.458 325.673 272.854C332.127 249.751 363.6 257.606 363.6 257.606C402.558 249.841 405.543 265.953 405.662 270.335Z" fill="#FA7D09"/>
<path d="M520.527 372.19C520.527 372.19 546.016 368.277 546.516 379.456C547.016 390.635 533.518 398.445 533.518 398.445L520.527 372.19Z" fill="#B87D7D"/>
<path opacity="0.1" d="M392.447 244.847C391.351 245.337 390.23 245.77 389.089 246.144C381.046 248.916 372.935 251.711 364.466 252.725C355.997 253.738 347.11 252.844 339.723 248.626C338.947 248.188 338.2 247.703 337.484 247.173C336.664 230.777 334.686 214.754 334.686 214.754C334.686 214.754 399.603 184.198 392.141 208.419C389.172 218.204 390.179 231.947 392.447 244.847Z" fill="#4A3F35"/>
<path d="M353.072 143.038C352.007 143.318 350.891 143.347 349.813 143.12C348.735 142.894 347.725 142.419 346.864 141.733L348.416 143.887C347.501 143.993 346.575 143.897 345.701 143.607C344.827 143.318 344.027 142.841 343.357 142.21C343.216 144.138 343.296 146.076 343.596 147.986C341.028 148.11 338.499 147.317 336.462 145.75C336.422 146.423 336.59 147.091 336.942 147.665C337.294 148.24 337.814 148.692 338.432 148.962C335.852 148.655 333.249 149.295 331.107 150.763C328.965 152.232 327.431 154.429 326.792 156.944L330.687 157.302C327.626 157.955 324.878 159.629 322.897 162.049C321.703 163.54 320.793 165.447 321.315 167.266C321.837 169.084 324.359 170.247 325.732 168.95C323.779 171.278 322.36 174.005 321.574 176.939C320.787 179.873 320.653 182.943 321.181 185.935C321.535 187.209 321.651 188.538 321.524 189.855C321.278 191.084 320.502 192.15 320.114 193.35C319.368 195.526 320.076 197.889 320.74 200.057L324.24 211.549C325.508 215.7 326.77 219.859 328.426 223.876C329.599 226.415 330.596 229.032 331.411 231.708C332.351 235.315 332.388 239.265 334.395 242.418C335.771 244.402 337.61 246.021 339.753 247.135C347.132 251.353 356.049 252.248 364.496 251.234C372.942 250.221 381.046 247.426 389.082 244.654C390.867 244.116 392.581 243.366 394.186 242.418C399.745 238.781 400.983 231.343 402.021 224.792C403.177 217.489 404.722 210.2 407.46 203.329C409.087 199.237 411.191 195.086 410.833 190.704C410.378 184.884 405.766 180.166 404.625 174.443C404.243 172.53 404.26 170.558 404.677 168.652C405.031 167.516 405.229 166.338 405.266 165.149C405.14 162.75 403.17 160.901 401.319 159.359C397.305 156.01 393.161 152.845 388.888 149.864C388.672 148.374 390.701 147.733 391.619 146.555C392.917 144.893 391.574 142.255 389.604 141.48C387.634 140.705 385.426 141.212 383.374 141.726C383.508 140.677 383.299 139.613 382.778 138.692C382.258 137.771 381.454 137.042 380.485 136.614C379.517 136.187 378.437 136.082 377.404 136.317C376.372 136.552 375.443 137.113 374.756 137.918C374.211 136.67 373.34 135.591 372.235 134.794C371.13 133.996 369.83 133.511 368.473 133.386C363.526 132.999 363.429 136.777 360.265 138.857C357.101 140.936 354.49 138.193 352.057 136.196C351.61 137.325 351.469 138.552 351.647 139.753C351.825 140.954 352.316 142.086 353.072 143.038Z" fill="#3F3D56"/>
<path d="M539.427 394.547C539.427 394.547 538.763 396.127 537.54 398.415C535.689 401.935 533.435 405.229 530.824 408.23L530.623 408.446H529.414L486.33 408.841H485.3L485.174 408.692L476.816 398.788L473.668 395.054L473.541 394.898L473.272 394.585L473.123 394.406L472.929 394.175L466.803 386.916L469.041 377.6L472.854 361.905L472.951 361.525L473.697 358.544L474.227 356.308L476.003 349.02L482.092 323.942L492.911 329.531L504.32 349.653L510.446 360.459H513.804C514.438 360.459 515.893 361.682 517.356 363.09C517.878 363.589 518.4 364.118 518.848 364.581C520.176 365.952 521.228 367.129 521.228 367.129C521.228 367.129 526.668 367.249 528.13 371.526C528.206 371.733 528.268 371.945 528.317 372.16C528.802 373.841 529.434 375.477 530.205 377.049C531.167 379.143 532.376 381.52 533.6 383.898C535.876 388.257 538.189 392.408 539.039 393.914L539.144 394.1L539.427 394.547Z" fill="#FA7D09"/>
<path opacity="0.1" d="M475.332 360.899L475.257 361.965V362.039L475.13 363.753L474.138 377.548L472.936 394.167L472.593 398.848L471.847 408.864V408.99L392.007 409.736L260.987 411.152V411.778H260.883V411.152V410.943L261.219 400.241L261.86 379.329L262.412 361.599L262.465 359.833C262.497 358.767 262.747 357.719 263.199 356.753C263.651 355.786 264.295 354.922 265.093 354.213C265.89 353.503 266.824 352.964 267.837 352.627C268.851 352.29 269.922 352.163 270.986 352.254C274.508 352.552 279.082 352.917 284.551 353.305L286.79 353.469C318.375 355.66 376.748 358.492 435.65 354.959C436.889 354.892 438.135 354.818 439.381 354.728C448.514 354.154 457.64 353.417 466.676 352.492C467.818 352.373 468.973 352.505 470.059 352.879C471.144 353.254 472.135 353.861 472.96 354.659C473.785 355.457 474.425 356.426 474.835 357.497C475.245 358.569 475.414 359.718 475.332 360.862V360.899Z" fill="#4A3F35"/>
<path d="M260.965 411.778V411.152L392.007 409.728L471.847 408.983H472.071V408.856L472.817 398.84L473.138 394.369L474.362 377.518L475.324 364.178V363.85C475.369 363.235 475.341 362.618 475.242 362.009C475.246 361.985 475.246 361.96 475.242 361.935C475.037 360.677 474.524 359.489 473.75 358.477C472.928 357.425 471.852 356.599 470.622 356.077C469.392 355.556 468.049 355.355 466.721 355.496C457.685 356.42 448.559 357.158 439.426 357.732C438.18 357.821 436.934 357.896 435.695 357.963C376.793 361.458 318.42 358.626 286.835 356.472L284.596 356.308C279.127 355.921 274.553 355.563 271.031 355.257C269.093 355.094 267.164 355.653 265.615 356.827C264.066 358.001 263.008 359.707 262.644 361.614C262.568 362.018 262.524 362.426 262.509 362.837L262.002 379.352L261.308 400.271L260.98 410.973V411.182V411.808L260.965 411.778Z" fill="#3F3D56"/>
<path opacity="0.1" d="M475.556 366.123L474.638 377.548L473.272 394.577L472.929 398.84L472.183 408.387L472.138 408.864V408.991L472.026 410.094L472.108 408.991H471.892L392.052 409.736L260.987 411.152V410.943L261.353 400.241L262.099 379.329L262.577 365.43C262.6 364.64 262.821 363.867 263.22 363.184C263.619 362.501 264.183 361.928 264.86 361.518C265.705 361 266.693 360.765 267.68 360.847C269.247 360.974 271.172 361.123 273.418 361.287C277.067 361.555 281.567 361.868 286.805 362.196C296.505 362.807 308.675 363.463 322.621 363.999C361.422 365.49 413.803 365.989 463.557 361.637C465.796 361.443 468.109 361.227 470.37 361.011C471.265 360.922 472.166 361.092 472.966 361.503C473.193 361.615 473.408 361.75 473.608 361.905C474.258 362.375 474.772 363.007 475.1 363.738C475.176 363.884 475.239 364.036 475.287 364.193C475.511 364.811 475.603 365.468 475.556 366.123Z" fill="#4A3F35"/>
<path opacity="0.1" d="M222.433 376.326V378.703C222.433 379.568 222.188 380.415 221.726 381.145C221.263 381.876 220.603 382.461 219.821 382.832L189.9 383.406C189.104 383.042 188.43 382.457 187.958 381.721C187.486 380.985 187.235 380.129 187.236 379.255V377.019L222.433 376.326Z" fill="#4A3F35"/>
<path d="M222.806 384.233L183.819 384.978V378.517L222.806 377.772V384.233Z" fill="#3F3D56"/>
<path opacity="0.1" d="M222.806 384.233L183.819 384.978V378.517L222.806 377.772V384.233Z" fill="#4A3F35"/>
<path d="M224.298 384.233L185.311 384.978V378.517L224.298 377.772V384.233Z" fill="#3F3D56"/>
<g opacity="0.1">
<path opacity="0.1" d="M353.378 140.593C352.649 139.647 352.165 138.536 351.968 137.359C351.788 138.51 351.896 139.687 352.281 140.787C352.651 140.753 353.018 140.688 353.378 140.593Z" fill="#4A3F35"/>
<path opacity="0.1" d="M343.902 145.542C343.761 144.628 343.669 143.707 343.625 142.784C343.625 143.701 343.625 144.625 343.625 145.549L343.902 145.542Z" fill="#4A3F35"/>
<path opacity="0.1" d="M404.714 170.411C404.756 169.747 404.845 169.087 404.983 168.436C405.336 167.302 405.537 166.127 405.58 164.941C405.563 164.674 405.523 164.41 405.46 164.151C405.334 164.836 405.132 165.522 404.983 166.2C404.685 167.583 404.594 169.002 404.714 170.411Z" fill="#4A3F35"/>
<path opacity="0.1" d="M389.194 147.382L390.007 147.971C390.693 147.476 391.335 146.922 391.925 146.317C392.206 145.929 392.38 145.474 392.429 144.998C392.479 144.522 392.403 144.041 392.208 143.604C392.134 143.774 392.039 143.934 391.925 144.081C391.007 145.258 388.977 145.907 389.194 147.382Z" fill="#4A3F35"/>
<path opacity="0.1" d="M327.881 154.552C327.609 155.095 327.392 155.664 327.232 156.251C328.399 155.6 329.657 155.126 330.963 154.842L327.881 154.552Z" fill="#4A3F35"/>
<path opacity="0.1" d="M338.171 146.443C337.681 146.174 337.212 145.867 336.768 145.527C336.749 145.822 336.772 146.118 336.835 146.406C337.281 146.385 337.727 146.397 338.171 146.443Z" fill="#4A3F35"/>
<path opacity="0.1" d="M411.124 190.354C410.818 193.969 409.132 197.449 407.766 200.877C405.028 207.748 403.483 215.037 402.327 222.348C401.289 228.899 400.088 236.336 394.492 239.966C392.893 240.92 391.181 241.671 389.395 242.202C381.352 244.981 373.241 247.769 364.772 248.782C356.303 249.796 347.416 248.909 340.029 244.691C337.887 243.575 336.049 241.956 334.671 239.973C332.679 236.821 332.642 232.871 331.687 229.264C330.872 226.586 329.875 223.966 328.702 221.424C327.053 217.414 325.785 213.226 324.524 209.105C323.355 205.274 322.188 201.441 321.024 197.605C320.641 196.452 320.356 195.267 320.173 194.065C319.882 195.973 320.45 197.971 321.024 199.841C322.188 203.682 323.355 207.515 324.524 211.34C325.785 215.492 327.053 219.65 328.702 223.66C329.875 226.202 330.872 228.821 331.687 231.5C332.627 235.107 332.664 239.057 334.671 242.209C336.049 244.192 337.887 245.81 340.029 246.927C347.416 251.145 356.325 252.032 364.772 251.018C373.219 250.005 381.322 247.217 389.395 244.437C391.181 243.907 392.893 243.156 394.492 242.202C400.051 238.572 401.289 231.135 402.327 224.584C403.483 217.273 405.028 209.984 407.766 203.113C409.393 199.029 411.497 194.878 411.139 190.488C411.139 190.443 411.124 190.399 411.124 190.354Z" fill="#4A3F35"/>
<path opacity="0.1" d="M321.815 187.47C321.815 187.47 321.815 187.418 321.815 187.388C321.95 186.074 321.833 184.746 321.472 183.475C321.323 182.657 321.226 181.831 321.181 181.001C321.095 182.577 321.193 184.158 321.472 185.711C321.591 186.292 321.725 186.881 321.815 187.47Z" fill="#4A3F35"/>
<path opacity="0.1" d="M324.091 169.241C324.665 168.278 325.316 167.363 326.038 166.506C324.673 167.81 322.151 166.647 321.621 164.836C321.426 165.569 321.426 166.34 321.621 167.072C321.805 167.619 322.13 168.108 322.564 168.488C322.997 168.869 323.524 169.129 324.091 169.241Z" fill="#4A3F35"/>
</g>
<path opacity="0.1" d="M510.454 360.452C510.454 360.452 512.819 369.022 510.454 376.475C508.088 383.928 510.454 360.452 510.454 360.452Z" fill="#4A3F35"/>
<path opacity="0.1" d="M520.527 369.194C520.527 369.194 521.52 380.074 519.281 382.005C517.042 383.935 520.527 369.194 520.527 369.194Z" fill="#4A3F35"/>
<path d="M148.48 255.519L224.298 254.774" stroke="#FA7D09" stroke-width="2" stroke-miterlimit="10"/>
<path d="M148.48 264.813L224.298 264.075" stroke="#FA7D09" stroke-width="2" stroke-miterlimit="10"/>
<path d="M148.48 274.114L224.298 273.368" stroke="#FA7D09" stroke-width="2" stroke-miterlimit="10"/>
</g>
<defs>
<clipPath id="clip0">
<rect width="777" height="413" fill="white"/>
</clipPath>
</defs>
</svg>
