<svg width="737" height="398" viewBox="0 0 737 398" fill="none" xmlns="http://www.w3.org/2000/svg">
<g clip-path="url(#clip0)">
<path opacity="0.1" d="M737 255.46C737.009 266.272 735.524 277.033 732.587 287.438C729.749 297.469 725.573 307.071 720.173 315.986C720.173 348.287 698.385 376.204 666.759 389.485C653.544 394.979 639.368 397.784 625.058 397.737H139.908C113.977 397.737 89.9475 390.736 70.2405 378.808C64.6005 375.41 59.2502 371.553 54.2442 367.274C32.3404 348.435 18.76 322.401 18.76 293.647C6.46687 274.703 -0.0515133 252.588 -9.94384e-06 230C-9.94384e-06 182.703 27.9532 142.034 67.9985 124.078C73.3161 121.695 78.8108 119.729 84.4329 118.199C86.4214 117.657 88.4314 117.171 90.4629 116.741C95.8783 115.587 101.371 114.833 106.897 114.485C108.894 114.36 110.902 114.289 112.921 114.272H114.029C116.258 114.272 118.468 114.35 120.664 114.478L121.386 113.253C122.271 111.775 123.177 110.311 124.105 108.863C125.78 106.224 127.536 103.623 129.374 101.062C131.299 98.3583 133.306 95.6977 135.398 93.0801L135.933 92.4354C137.118 90.9568 138.329 89.4955 139.566 88.0513C143.432 83.5425 147.512 79.1692 151.807 74.9312C198.262 29.3622 271.041 0.0273438 352.858 0.0273438C416.521 0.0273438 474.714 17.7894 519.289 47.1372C536.175 37.5738 555.251 32.5557 574.654 32.5729C637.621 32.5729 688.683 84.3893 688.683 148.307C688.673 152.351 688.458 156.393 688.038 160.415C703.217 171.168 715.588 185.416 724.11 201.958C732.631 218.499 737.052 236.849 737 255.46V255.46Z" fill="#FA7D09"/>
<path opacity="0.2" d="M151.819 74.9038V88.0239H139.579C143.414 83.5194 147.494 79.1461 151.819 74.9038Z" fill="#FA7D09"/>
<path opacity="0.2" d="M174.284 71.577H157.849V88.0239H174.284V71.577Z" fill="#FA7D09"/>
<path opacity="0.2" d="M196.742 71.577H180.307V88.0239H196.742V71.577Z" fill="#FA7D09"/>
<path opacity="0.2" d="M219.206 71.577H202.772V88.0239H219.206V71.577Z" fill="#FA7D09"/>
<path opacity="0.2" d="M241.664 71.577H225.23V88.0239H241.664V71.577Z" fill="#FA7D09"/>
<path opacity="0.2" d="M264.128 71.577H247.694V88.0239H264.128V71.577Z" fill="#FA7D09"/>
<path d="M286.592 71.577H270.158V88.0239H286.592V71.577Z" fill="#FA7D09"/>
<path opacity="0.2" d="M309.05 71.577H292.616V88.0239H309.05V71.577Z" fill="#FA7D09"/>
<path opacity="0.2" d="M331.515 71.577H315.08V88.0239H331.515V71.577Z" fill="#FA7D09"/>
<path opacity="0.2" d="M353.973 71.577H337.538V88.0239H353.973V71.577Z" fill="#FA7D09"/>
<path d="M376.437 71.577H360.003V88.0239H376.437V71.577Z" fill="#FA7D09"/>
<path opacity="0.2" d="M398.901 71.577H382.467V88.0239H398.901V71.577Z" fill="#FA7D09"/>
<path opacity="0.2" d="M421.359 71.577H404.925V88.0239H421.359V71.577Z" fill="#FA7D09"/>
<path opacity="0.2" d="M443.823 71.577H427.389V88.0239H443.823V71.577Z" fill="#FA7D09"/>
<path opacity="0.2" d="M466.288 71.577H449.853V88.0239H466.288V71.577Z" fill="#FA7D09"/>
<path opacity="0.2" d="M488.746 71.577H472.311V88.0239H488.746V71.577Z" fill="#FA7D09"/>
<path opacity="0.2" d="M511.21 71.577H494.776V88.0239H511.21V71.577Z" fill="#FA7D09"/>
<path d="M533.668 71.577H517.233V88.0239H533.668V71.577Z" fill="#FA7D09"/>
<path d="M556.132 71.577H539.698V88.0239H556.132V71.577Z" fill="#FA7D09"/>
<path opacity="0.2" d="M578.597 71.577H562.162V88.0239H578.597V71.577Z" fill="#FA7D09"/>
<path opacity="0.2" d="M601.054 71.577H584.62V88.0239H601.054V71.577Z" fill="#FA7D09"/>
<path d="M623.519 71.577H607.084V88.0239H623.519V71.577Z" fill="#FA7D09"/>
<path d="M645.977 71.577H629.542V88.0239H645.977V71.577Z" fill="#FA7D09"/>
<path d="M129.362 101.054V108.855H124.092C125.767 106.199 127.523 103.598 129.362 101.054Z" fill="#FA7D09"/>
<path opacity="0.2" d="M151.819 92.4081H135.385V108.855H151.819V92.4081Z" fill="#FA7D09"/>
<path d="M174.284 92.4081H157.849V108.855H174.284V92.4081Z" fill="#FA7D09"/>
<path opacity="0.2" d="M196.742 92.4081H180.307V108.855H196.742V92.4081Z" fill="#FA7D09"/>
<path opacity="0.7" d="M219.206 92.4081H202.772V108.855H219.206V92.4081Z" fill="#FA7D09"/>
<path opacity="0.2" d="M241.664 92.4081H225.23V108.855H241.664V92.4081Z" fill="#FA7D09"/>
<path opacity="0.4" d="M264.128 92.4081H247.694V108.855H264.128V92.4081Z" fill="#FA7D09"/>
<path d="M286.592 92.4081H270.158V108.855H286.592V92.4081Z" fill="#FA7D09"/>
<path opacity="0.4" d="M309.05 92.4081H292.616V108.855H309.05V92.4081Z" fill="#FA7D09"/>
<path opacity="0.2" d="M331.515 92.4081H315.08V108.855H331.515V92.4081Z" fill="#FA7D09"/>
<path opacity="0.4" d="M353.973 92.4081H337.538V108.855H353.973V92.4081Z" fill="#FA7D09"/>
<path d="M376.437 92.4081H360.003V108.855H376.437V92.4081Z" fill="#FA7D09"/>
<path opacity="0.4" d="M398.901 92.4081H382.467V108.855H398.901V92.4081Z" fill="#FA7D09"/>
<path opacity="0.4" d="M421.359 92.4081H404.925V108.855H421.359V92.4081Z" fill="#FA7D09"/>
<path opacity="0.2" d="M443.823 92.4081H427.389V108.855H443.823V92.4081Z" fill="#FA7D09"/>
<path opacity="0.4" d="M466.288 92.4081H449.853V108.855H466.288V92.4081Z" fill="#FA7D09"/>
<path opacity="0.4" d="M488.746 92.4081H472.311V108.855H488.746V92.4081Z" fill="#FA7D09"/>
<path opacity="0.2" d="M511.21 92.4081H494.776V108.855H511.21V92.4081Z" fill="#FA7D09"/>
<path opacity="0.2" d="M533.668 92.4081H517.233V108.855H533.668V92.4081Z" fill="#FA7D09"/>
<path opacity="0.4" d="M556.132 92.4081H539.698V108.855H556.132V92.4081Z" fill="#FA7D09"/>
<path opacity="0.2" d="M578.597 92.4081H562.162V108.855H578.597V92.4081Z" fill="#FA7D09"/>
<path d="M601.054 92.4081H584.62V108.855H601.054V92.4081Z" fill="#FA7D09"/>
<path d="M623.519 92.4081H607.084V108.855H623.519V92.4081Z" fill="#FA7D09"/>
<path d="M645.977 92.4081H629.542V108.855H645.977V92.4081Z" fill="#FA7D09"/>
<path opacity="0.2" d="M84.4329 118.197V129.692H67.9985V124.077C73.3161 121.694 78.8108 119.728 84.4329 118.197V118.197Z" fill="#FA7D09"/>
<path opacity="0.2" d="M106.897 114.483V129.692H90.4629V116.74L106.897 114.483Z" fill="#FA7D09"/>
<path d="M129.355 113.245H112.921V129.692H129.355V113.245Z" fill="#FA7D09"/>
<path opacity="0.7" d="M151.819 113.245H135.385V129.692H151.819V113.245Z" fill="#FA7D09"/>
<path d="M174.284 113.245H157.849V129.692H174.284V113.245Z" fill="#FA7D09"/>
<path opacity="0.7" d="M196.742 113.245H180.307V129.692H196.742V113.245Z" fill="#FA7D09"/>
<path opacity="0.7" d="M219.206 113.245H202.772V129.692H219.206V113.245Z" fill="#FA7D09"/>
<path opacity="0.2" d="M241.664 113.245H225.23V129.692H241.664V113.245Z" fill="#FA7D09"/>
<path opacity="0.4" d="M264.128 113.245H247.694V129.692H264.128V113.245Z" fill="#FA7D09"/>
<path opacity="0.4" d="M286.592 113.245H270.158V129.692H286.592V113.245Z" fill="#FA7D09"/>
<path d="M309.05 113.245H292.616V129.692H309.05V113.245Z" fill="#FA7D09"/>
<path opacity="0.2" d="M331.515 113.245H315.08V129.692H331.515V113.245Z" fill="#FA7D09"/>
<path opacity="0.4" d="M353.973 113.245H337.538V129.692H353.973V113.245Z" fill="#FA7D09"/>
<path d="M376.437 113.245H360.003V129.692H376.437V113.245Z" fill="#FA7D09"/>
<path opacity="0.2" d="M398.901 113.245H382.467V129.692H398.901V113.245Z" fill="#FA7D09"/>
<path opacity="0.4" d="M421.359 113.245H404.925V129.692H421.359V113.245Z" fill="#FA7D09"/>
<path opacity="0.2" d="M443.823 113.245H427.389V129.692H443.823V113.245Z" fill="#FA7D09"/>
<path d="M466.288 113.245H449.853V129.692H466.288V113.245Z" fill="#FA7D09"/>
<path opacity="0.2" d="M488.746 113.245H472.311V129.692H488.746V113.245Z" fill="#FA7D09"/>
<path opacity="0.7" d="M511.21 113.245H494.776V129.692H511.21V113.245Z" fill="#FA7D09"/>
<path opacity="0.7" d="M533.668 113.245H517.233V129.692H533.668V113.245Z" fill="#FA7D09"/>
<path opacity="0.4" d="M556.132 113.245H539.698V129.692H556.132V113.245Z" fill="#FA7D09"/>
<path opacity="0.2" d="M578.597 113.245H562.162V129.692H578.597V113.245Z" fill="#FA7D09"/>
<path d="M601.054 113.245H584.62V129.692H601.054V113.245Z" fill="#FA7D09"/>
<path d="M623.519 113.245H607.084V129.692H623.519V113.245Z" fill="#FA7D09"/>
<path d="M645.977 113.245H629.542V129.692H645.977V113.245Z" fill="#FA7D09"/>
<path opacity="0.2" d="M84.4329 134.076H67.9985V150.523H84.4329V134.076Z" fill="#FA7D09"/>
<path opacity="0.2" d="M106.897 134.076H90.4629V150.523H106.897V134.076Z" fill="#FA7D09"/>
<path opacity="0.2" d="M129.355 134.076H112.921V150.523H129.355V134.076Z" fill="#FA7D09"/>
<path opacity="0.2" d="M151.819 134.076H135.385V150.523H151.819V134.076Z" fill="#FA7D09"/>
<path d="M174.284 134.076H157.849V150.523H174.284V134.076Z" fill="#FA7D09"/>
<path opacity="0.7" d="M196.742 134.076H180.307V150.523H196.742V134.076Z" fill="#FA7D09"/>
<path opacity="0.7" d="M219.206 134.076H202.772V150.523H219.206V134.076Z" fill="#FA7D09"/>
<path opacity="0.2" d="M241.664 134.076H225.23V150.523H241.664V134.076Z" fill="#FA7D09"/>
<path opacity="0.2" d="M264.128 134.076H247.694V150.523H264.128V134.076Z" fill="#FA7D09"/>
<path opacity="0.4" d="M286.592 134.076H270.158V150.523H286.592V134.076Z" fill="#FA7D09"/>
<path opacity="0.4" d="M309.05 134.076H292.616V150.523H309.05V134.076Z" fill="#FA7D09"/>
<path d="M331.515 134.076H315.08V150.523H331.515V134.076Z" fill="#FA7D09"/>
<path opacity="0.2" d="M353.973 134.076H337.538V150.523H353.973V134.076Z" fill="#FA7D09"/>
<path opacity="0.4" d="M376.437 134.076H360.003V150.523H376.437V134.076Z" fill="#FA7D09"/>
<path opacity="0.4" d="M398.901 134.076H382.467V150.523H398.901V134.076Z" fill="#FA7D09"/>
<path opacity="0.4" d="M421.359 134.076H404.925V150.523H421.359V134.076Z" fill="#FA7D09"/>
<path opacity="0.4" d="M443.823 134.076H427.389V150.523H443.823V134.076Z" fill="#FA7D09"/>
<path opacity="0.2" d="M466.288 134.076H449.853V150.523H466.288V134.076Z" fill="#FA7D09"/>
<path opacity="0.2" d="M488.746 134.076H472.311V150.523H488.746V134.076Z" fill="#FA7D09"/>
<path opacity="0.2" d="M511.21 134.076H494.776V150.523H511.21V134.076Z" fill="#FA7D09"/>
<path opacity="0.2" d="M533.668 134.076H517.233V150.523H533.668V134.076Z" fill="#FA7D09"/>
<path opacity="0.7" d="M556.132 134.076H539.698V150.523H556.132V134.076Z" fill="#FA7D09"/>
<path opacity="0.7" d="M578.597 134.076H562.162V150.523H578.597V134.076Z" fill="#FA7D09"/>
<path opacity="0.4" d="M601.054 134.076H584.62V150.523H601.054V134.076Z" fill="#FA7D09"/>
<path opacity="0.2" d="M623.519 134.076H607.084V150.523H623.519V134.076Z" fill="#FA7D09"/>
<path d="M645.977 134.076H629.542V150.523H645.977V134.076Z" fill="#FA7D09"/>
<path opacity="0.2" d="M84.4329 154.914H67.9985V171.361H84.4329V154.914Z" fill="#FA7D09"/>
<path opacity="0.2" d="M106.897 154.914H90.4629V171.361H106.897V154.914Z" fill="#FA7D09"/>
<path opacity="0.4" d="M129.355 154.914H112.921V171.361H129.355V154.914Z" fill="#FA7D09"/>
<path opacity="0.2" d="M151.819 154.914H135.385V171.361H151.819V154.914Z" fill="#FA7D09"/>
<path opacity="0.2" d="M174.284 154.914H157.849V171.361H174.284V154.914Z" fill="#FA7D09"/>
<path opacity="0.7" d="M196.742 154.914H180.307V171.361H196.742V154.914Z" fill="#FA7D09"/>
<path opacity="0.7" d="M219.206 154.914H202.772V171.361H219.206V154.914Z" fill="#FA7D09"/>
<path opacity="0.2" d="M241.664 154.914H225.23V171.361H241.664V154.914Z" fill="#FA7D09"/>
<path opacity="0.2" d="M264.128 154.914H247.694V171.361H264.128V154.914Z" fill="#FA7D09"/>
<path opacity="0.4" d="M286.592 154.914H270.158V171.361H286.592V154.914Z" fill="#FA7D09"/>
<path d="M309.05 154.914H292.616V171.361H309.05V154.914Z" fill="#FA7D09"/>
<path opacity="0.2" d="M331.515 154.914H315.08V171.361H331.515V154.914Z" fill="#FA7D09"/>
<path d="M353.973 154.914H337.538V171.361H353.973V154.914Z" fill="#FA7D09"/>
<path d="M376.437 154.914H360.003V171.361H376.437V154.914Z" fill="#FA7D09"/>
<path d="M398.901 154.914H382.467V171.361H398.901V154.914Z" fill="#FA7D09"/>
<path opacity="0.2" d="M421.359 154.914H404.925V171.361H421.359V154.914Z" fill="#FA7D09"/>
<path d="M443.823 154.914H427.389V171.361H443.823V154.914Z" fill="#FA7D09"/>
<path opacity="0.2" d="M466.288 154.914H449.853V171.361H466.288V154.914Z" fill="#FA7D09"/>
<path opacity="0.2" d="M488.746 154.914H472.311V171.361H488.746V154.914Z" fill="#FA7D09"/>
<path opacity="0.2" d="M511.21 154.914H494.776V171.361H511.21V154.914Z" fill="#FA7D09"/>
<path opacity="0.2" d="M533.668 154.914H517.233V171.361H533.668V154.914Z" fill="#FA7D09"/>
<path opacity="0.2" d="M556.132 154.914H539.698V171.361H556.132V154.914Z" fill="#FA7D09"/>
<path opacity="0.7" d="M578.597 154.914H562.162V171.361H578.597V154.914Z" fill="#FA7D09"/>
<path opacity="0.2" d="M601.054 154.914H584.62V171.361H601.054V154.914Z" fill="#FA7D09"/>
<path opacity="0.2" d="M623.519 154.914H607.084V171.361H623.519V154.914Z" fill="#FA7D09"/>
<path d="M645.977 154.914H629.542V171.361H645.977V154.914Z" fill="#FA7D09"/>
<path opacity="0.2" d="M84.4329 175.745H67.9985V192.192H84.4329V175.745Z" fill="#FA7D09"/>
<path opacity="0.2" d="M106.897 175.745H90.4629V192.192H106.897V175.745Z" fill="#FA7D09"/>
<path opacity="0.2" d="M129.355 175.745H112.921V192.192H129.355V175.745Z" fill="#FA7D09"/>
<path opacity="0.4" d="M151.819 175.745H135.385V192.192H151.819V175.745Z" fill="#FA7D09"/>
<path opacity="0.2" d="M174.284 175.745H157.849V192.192H174.284V175.745Z" fill="#FA7D09"/>
<path opacity="0.2" d="M196.742 175.745H180.307V192.192H196.742V175.745Z" fill="#FA7D09"/>
<path opacity="0.7" d="M219.206 175.745H202.772V192.192H219.206V175.745Z" fill="#FA7D09"/>
<path opacity="0.2" d="M241.664 175.745H225.23V192.192H241.664V175.745Z" fill="#FA7D09"/>
<path opacity="0.2" d="M264.128 175.745H247.694V192.192H264.128V175.745Z" fill="#FA7D09"/>
<path opacity="0.2" d="M286.592 175.745H270.158V192.192H286.592V175.745Z" fill="#FA7D09"/>
<path d="M309.05 175.745H292.616V192.192H309.05V175.745Z" fill="#FA7D09"/>
<path opacity="0.2" d="M331.515 175.745H315.08V192.192H331.515V175.745Z" fill="#FA7D09"/>
<path d="M353.973 175.745H337.538V192.192H353.973V175.745Z" fill="#FA7D09"/>
<path d="M376.437 175.745H360.003V192.192H376.437V175.745Z" fill="#FA7D09"/>
<path opacity="0.2" d="M398.901 175.745H382.467V192.192H398.901V175.745Z" fill="#FA7D09"/>
<path opacity="0.2" d="M421.359 175.745H404.925V192.192H421.359V175.745Z" fill="#FA7D09"/>
<path opacity="0.2" d="M443.823 175.745H427.389V192.192H443.823V175.745Z" fill="#FA7D09"/>
<path opacity="0.2" d="M466.288 175.745H449.853V192.192H466.288V175.745Z" fill="#FA7D09"/>
<path opacity="0.2" d="M488.746 175.745H472.311V192.192H488.746V175.745Z" fill="#FA7D09"/>
<path opacity="0.2" d="M511.21 175.745H494.776V192.192H511.21V175.745Z" fill="#FA7D09"/>
<path opacity="0.2" d="M533.668 175.745H517.233V192.192H533.668V175.745Z" fill="#FA7D09"/>
<path opacity="0.2" d="M556.132 175.745H539.698V192.192H556.132V175.745Z" fill="#FA7D09"/>
<path opacity="0.2" d="M578.597 175.745H562.162V192.192H578.597V175.745Z" fill="#FA7D09"/>
<path opacity="0.2" d="M601.054 175.745H584.62V192.192H601.054V175.745Z" fill="#FA7D09"/>
<path opacity="0.4" d="M623.519 175.745H607.084V192.192H623.519V175.745Z" fill="#FA7D09"/>
<path d="M645.977 175.745H629.542V192.192H645.977V175.745Z" fill="#FA7D09"/>
<path opacity="0.7" d="M84.4329 196.582H67.9985V213.029H84.4329V196.582Z" fill="#FA7D09"/>
<path opacity="0.7" d="M106.897 196.582H90.4629V213.029H106.897V196.582Z" fill="#FA7D09"/>
<path opacity="0.7" d="M129.355 196.582H112.921V213.029H129.355V196.582Z" fill="#FA7D09"/>
<path opacity="0.7" d="M151.819 196.582H135.385V213.029H151.819V196.582Z" fill="#FA7D09"/>
<path opacity="0.7" d="M174.284 196.582H157.849V213.029H174.284V196.582Z" fill="#FA7D09"/>
<path opacity="0.2" d="M196.742 196.582H180.307V213.029H196.742V196.582Z" fill="#FA7D09"/>
<path opacity="0.2" d="M219.206 196.582H202.772V213.029H219.206V196.582Z" fill="#FA7D09"/>
<path opacity="0.2" d="M241.664 196.582H225.23V213.029H241.664V196.582Z" fill="#FA7D09"/>
<path opacity="0.2" d="M264.128 196.582H247.694V213.029H264.128V196.582Z" fill="#FA7D09"/>
<path opacity="0.2" d="M286.592 196.582H270.158V213.029H286.592V196.582Z" fill="#FA7D09"/>
<path opacity="0.2" d="M309.05 196.582H292.616V213.029H309.05V196.582Z" fill="#FA7D09"/>
<path d="M331.515 196.582H315.08V213.029H331.515V196.582Z" fill="#FA7D09"/>
<path opacity="0.2" d="M353.973 196.582H337.538V213.029H353.973V196.582Z" fill="#FA7D09"/>
<path opacity="0.2" d="M376.437 196.582H360.003V213.029H376.437V196.582Z" fill="#FA7D09"/>
<path opacity="0.2" d="M398.901 196.582H382.467V213.029H398.901V196.582Z" fill="#FA7D09"/>
<path d="M421.359 196.582H404.925V213.029H421.359V196.582Z" fill="#FA7D09"/>
<path opacity="0.2" d="M443.823 196.582H427.389V213.029H443.823V196.582Z" fill="#FA7D09"/>
<path opacity="0.2" d="M466.288 196.582H449.853V213.029H466.288V196.582Z" fill="#FA7D09"/>
<path opacity="0.2" d="M488.746 196.582H472.311V213.029H488.746V196.582Z" fill="#FA7D09"/>
<path opacity="0.2" d="M511.21 196.582H494.776V213.029H511.21V196.582Z" fill="#FA7D09"/>
<path opacity="0.2" d="M533.668 196.582H517.233V213.029H533.668V196.582Z" fill="#FA7D09"/>
<path opacity="0.2" d="M556.132 196.582H539.698V213.029H556.132V196.582Z" fill="#FA7D09"/>
<path opacity="0.2" d="M578.597 196.582H562.162V213.029H578.597V196.582Z" fill="#FA7D09"/>
<path opacity="0.2" d="M601.054 196.582H584.62V213.029H601.054V196.582Z" fill="#FA7D09"/>
<path opacity="0.2" d="M623.519 196.582H607.084V213.029H623.519V196.582Z" fill="#FA7D09"/>
<path d="M645.977 196.582H629.542V213.029H645.977V196.582Z" fill="#FA7D09"/>
<path d="M473.2 257.089C485.607 257.089 495.665 247.024 495.665 234.608C495.665 222.192 485.607 212.126 473.2 212.126C460.794 212.126 450.736 222.192 450.736 234.608C450.736 247.024 460.794 257.089 473.2 257.089Z" fill="#767D9F"/>
<path d="M472.034 206.008C474.276 215.799 476.179 225.664 477.742 235.601C478.212 238.554 478.631 241.668 477.562 244.459C476.666 246.787 474.843 248.605 473.413 250.642C471.983 252.68 470.9 255.291 471.77 257.625C472.64 259.958 475.178 261.235 477.6 261.893C484.532 263.762 491.922 262.402 498.821 260.378C501.945 259.573 504.94 258.331 507.718 256.69C510.643 254.833 513.04 252.254 515.243 249.598C525.299 237.393 531.883 222.745 538.081 208.187C534.099 208.55 530.087 207.959 526.378 206.464C522.669 204.968 519.369 202.611 516.75 199.587C514.212 196.602 512.35 192.443 513.78 188.794C509.587 191.096 504.607 191.25 500.091 192.824C497.29 193.894 494.594 195.221 492.038 196.789C488.954 198.572 485.887 200.39 482.838 202.243C479.353 204.345 476.087 206.214 472.034 206.008Z" fill="#AE6E79"/>
<path d="M519.018 222.887C515.082 230.553 509.96 237.922 502.648 242.487C495.336 247.051 485.492 248.289 478.167 243.776C474.56 241.571 471.828 238.218 468.678 235.395C465.528 232.571 461.591 230.153 457.359 230.521C452.695 230.927 449.042 234.569 445.917 238.057C441.176 243.357 436.595 248.882 433.239 255.155C426.796 267.212 425.27 281.305 425.553 294.973C425.837 308.642 427.814 322.239 427.859 335.907C427.924 352.721 425.076 369.4 422.197 385.963C448.675 382.701 475.185 389.831 501.72 392.533C518.702 394.28 535.813 394.241 552.885 394.196C555.887 394.196 559.083 394.119 561.582 392.455C563.11 391.34 564.346 389.871 565.184 388.174C567.542 383.823 568.489 378.858 569.146 373.952C570.814 361.56 570.866 349.014 570.911 336.506C571.027 306.204 571.136 275.793 567.29 245.729C566.343 238.335 565.132 230.901 562.298 223.983C559.463 217.065 554.837 210.702 548.369 206.995C544.214 204.609 534.583 200.457 529.687 202.862C524.191 205.544 521.653 217.755 519.018 222.887Z" fill="#767D9F"/>
<path d="M520.977 308.455C519.978 289.758 515.913 269.803 524.565 253.208C526.691 249.134 519.063 244.047 521.421 240.101C524.298 235.29 526.48 230.096 527.902 224.673C528.392 222.81 528.785 220.837 528.321 218.967C527.464 215.556 524.095 213.526 521.234 211.45C518.077 209.154 516.454 202.159 515.436 198.375C514.418 194.59 523.534 199.148 527.2 197.801C532.289 195.938 538.757 197.111 543.834 199C546.668 200.044 549.748 200.135 552.769 200.212C558.638 200.367 564.526 200.515 570.35 199.793C572.966 199.464 575.588 198.968 578.216 199.116C584.923 199.496 590.753 204.087 594.722 209.515C598.69 214.944 601.215 221.269 604.469 227.149C607.181 232.048 610.415 236.678 612.728 241.777C614.776 246.29 616.071 251.139 617.353 255.961L620.658 268.333C621.236 270.103 621.511 271.958 621.47 273.82C621.302 275.799 620.426 277.643 619.537 279.403C616.175 285.927 612.145 292.083 607.51 297.771C600.558 306.301 592.119 313.993 587.989 324.205C586.379 328.183 585.483 332.412 584.665 336.629C581.366 353.493 579.022 370.53 577.643 387.659C570.115 384.173 562.225 381.532 554.116 379.787C550.073 378.921 545.987 378.275 541.875 377.852C538.274 377.478 533.629 378.188 530.202 377.208C524.468 375.577 523.837 365.873 522.967 360.793C521.576 352.702 521.299 344.469 521.247 336.294C521.183 326.997 521.473 317.719 520.977 308.455Z" fill="#4C4981"/>
<path d="M395.062 273.491C397.774 288.965 400.763 304.483 406.658 319.022C406.51 319.163 406.361 319.292 406.213 319.421C405.691 319.866 405.15 320.285 404.583 320.711C403.263 321.639 401.813 322.426 400.718 323.638C400.303 324.102 399.976 324.637 399.752 325.217C399.549 325.671 399.445 326.162 399.445 326.658C399.445 327.155 399.549 327.646 399.752 328.099C396.679 329.46 393.11 329.041 389.663 328.912C386.693 328.802 383.813 328.912 381.43 330.543C378.118 332.825 377.12 337.209 376.585 341.194C376.387 342.646 376.218 344.101 376.076 345.558C375.939 346.912 375.827 348.27 375.741 349.633C375.449 354.14 375.408 358.66 375.619 363.172C375.653 363.997 375.698 364.823 375.754 365.648C365.227 365.396 355.635 359.903 346.557 354.565C344.483 353.347 342.344 352.064 340.998 350.052C339.757 348.076 339.232 345.735 339.51 343.418C339.51 343.089 339.568 342.773 339.613 342.438C339.901 340.525 340.396 338.648 341.088 336.842C343.928 329.146 348.114 322.018 353.451 315.791C355.757 313.097 358.353 310.46 359.429 307.075C359.899 305.598 360.073 304.032 360.55 302.562C362.689 296.192 370.407 293.181 373.048 286.998C373.692 285.522 373.989 283.904 374.788 282.485C375.507 281.306 376.435 280.269 377.526 279.423C377.996 279.029 378.486 278.649 378.969 278.269C383.495 274.718 387.857 270.968 392.053 267.018C392.835 266.283 393.608 265.54 394.372 264.787C394.27 267.706 394.501 270.626 395.062 273.491V273.491Z" fill="#4C4981"/>
<path d="M459.981 227.729C459.053 228.709 458.048 229.631 457.062 230.546L456.798 230.785L455.755 231.752C453.86 233.388 452.221 235.298 450.891 237.419L450.781 237.599C447.496 243.486 448.713 250.732 449.628 257.418C450.763 265.75 451.273 274.155 451.155 282.562C450.987 294.167 449.622 305.695 449.596 317.287C449.596 319.918 449.654 322.542 449.77 325.172C449.957 329.447 450.279 333.715 450.665 337.983C451.084 342.663 451.586 347.338 452.057 352.012C452.43 355.629 452.785 359.239 453.081 362.85C453.229 364.719 453.371 366.583 453.487 368.452C453.622 370.644 453.732 372.843 453.796 375.035C453.841 376.428 453.867 377.814 453.867 379.206C453.867 379.999 453.867 380.786 453.867 381.572C453.867 383.081 453.826 384.585 453.745 386.085C453.659 388.015 453.528 389.949 453.352 391.888C453.152 393.996 452.798 396.298 451.316 397.781C451.226 397.871 451.129 397.955 451.032 398.039L448.945 397.781C434.556 396.057 420.03 395.798 405.588 397.007C405.904 394.828 406.194 392.655 406.477 390.47C406.606 389.438 406.735 388.4 406.858 387.362C406.999 386.176 407.135 384.989 407.263 383.803C407.412 382.514 407.547 381.224 407.676 379.935C408.011 376.612 408.305 373.288 408.558 369.961C408.932 365.108 409.215 360.247 409.409 355.377C409.503 353.052 409.576 350.725 409.628 348.395C409.701 345.507 409.735 342.616 409.731 339.723C409.731 336.913 409.707 334.097 409.66 331.278C409.66 330.349 409.621 329.421 409.544 328.499C409.489 327.669 409.374 326.844 409.203 326.03C408.724 324.153 408.077 322.323 407.27 320.562C407.128 320.227 406.993 319.918 406.858 319.563C406.78 319.389 406.709 319.208 406.638 319.034C410.349 315.727 412.991 311.298 415.529 306.939C419.646 299.918 423.859 292.588 424.548 284.477C425.237 276.367 421.211 267.257 413.467 264.781C411.361 264.136 409.132 263.956 406.961 263.575C404.912 263.214 400.641 262.395 398.27 260.926C396.981 262.249 395.693 263.55 394.405 264.826C394.483 262.878 394.958 260.967 395.803 259.211L396.717 259.256C396.643 259.049 396.608 258.83 396.614 258.611C396.614 257.921 397.091 257.141 398.109 256.277C401.143 253.698 405.917 253.124 407.83 249.636C408.629 248.186 408.764 246.458 409.409 244.936C411.258 240.597 416.566 238.999 419.761 235.53C422.957 232.061 423.756 227.149 426.339 223.28C428.269 220.455 430.945 218.223 434.07 216.833C434.328 216.71 434.592 216.588 434.856 216.478C440.203 214.19 446.555 213.667 452.095 213.68C454.247 213.68 459.826 213.745 462.558 214.834C463.001 214.993 463.406 215.241 463.749 215.563C466.661 218.735 462.132 225.434 459.981 227.729Z" fill="#4C4981"/>
<path d="M396.022 258.759C400.998 257.26 406.223 256.765 411.392 257.304C416.561 257.843 421.572 259.405 426.133 261.899C430.771 264.478 434.933 268.076 437.484 272.718C441.317 279.681 441.15 288.075 440.879 296.024C440.744 300.002 440.57 304.122 438.818 307.694C436.789 311.826 432.962 314.663 429.058 316.984C426.612 318.546 423.933 319.706 421.121 320.421C416.792 321.362 412.295 320.562 407.933 319.776C403.192 318.899 398.102 317.842 394.81 314.309C392.878 312.258 391.821 309.596 390.778 306.991C389.279 303.23 387.775 299.474 386.268 295.721C383.659 289.203 382.776 283.781 386.223 277.43C387.788 274.536 389.702 271.828 391.248 268.914C392.021 267.431 394.791 259.14 396.022 258.759Z" fill="#4C4981"/>
<path d="M666.779 370.212V389.49C653.564 394.984 639.388 397.789 625.078 397.742H451.335C451.245 397.832 451.148 397.916 451.052 398L448.964 397.742H139.908C113.977 397.742 89.9475 390.74 70.2405 378.813V349.381L218.877 332.213H218.993L305.552 339.549L327.952 341.484L339.587 342.47L363.668 344.514L376.057 345.565L394.095 347.099L396.634 347.312L409.634 348.414L427.273 349.865L452.076 351.967L493.423 355.481L522.51 357.95L570.273 362.005L579.357 362.772L580.336 362.856L581.186 362.927L593.182 363.946L606.35 365.068L607.877 365.197L666.779 370.212Z" fill="#504F60"/>
<path d="M492.192 369.503L305.919 337.686L298.698 374.236L384.084 384.467L410.375 387.762L482.696 373.507L492.192 369.503Z" fill="#9C9CA1"/>
<path d="M395.77 385.931L489.094 368.375C489.56 368.286 490.041 368.301 490.502 368.419C490.962 368.538 491.391 368.757 491.756 369.061C492.122 369.364 492.416 369.745 492.617 370.176C492.819 370.607 492.922 371.078 492.92 371.553V371.553C492.922 372.308 492.66 373.04 492.178 373.62C491.697 374.201 491.027 374.595 490.285 374.732L399.146 391.811L395.77 385.931Z" fill="#9C9CA1"/>
<path d="M436.254 330.723C439.159 330.453 442.103 329.995 444.719 328.705C447.94 327.1 450.446 324.334 453.429 322.297C459.987 317.784 468.762 317.178 476.28 319.769C483.798 322.361 490.073 327.912 494.466 334.54C497.385 338.956 499.575 344.591 497.514 349.465C496.806 350.955 495.915 352.35 494.859 353.617L489.487 360.645C488.466 362.122 487.238 363.444 485.84 364.571C483.83 366.035 481.331 366.634 478.87 366.995C472.331 367.95 465.676 367.408 459.085 367.846C447.766 368.601 436.711 372.25 425.366 372.127C418.847 372.056 412.411 370.741 406.039 369.426L377.841 363.624C372.932 362.618 367.385 361.148 365.073 356.693C364.035 354.688 363.842 352.367 363.72 350.11C363.385 343.895 363.72 336.984 368.023 332.503C372.069 328.299 378.466 326.971 383.298 323.863C389.212 320.053 391.164 321.285 397.4 324.147C409.566 329.661 422.952 331.927 436.254 330.723V330.723Z" fill="#AE6E79"/>
<path opacity="0.05" d="M436.254 330.723C439.159 330.453 442.103 329.995 444.719 328.705C447.94 327.1 450.446 324.334 453.429 322.297C459.987 317.784 468.762 317.178 476.28 319.769C483.798 322.361 490.073 327.912 494.466 334.54C497.385 338.956 499.575 344.591 497.514 349.465C496.806 350.955 495.915 352.35 494.859 353.617L489.487 360.645C488.466 362.122 487.238 363.444 485.84 364.571C483.83 366.035 481.331 366.634 478.87 366.995C472.331 367.95 465.676 367.408 459.085 367.846C447.766 368.601 436.711 372.25 425.366 372.127C418.847 372.056 412.411 370.741 406.039 369.426L377.841 363.624C372.932 362.618 367.385 361.148 365.073 356.693C364.035 354.688 363.842 352.367 363.72 350.11C363.385 343.895 363.72 336.984 368.023 332.503C372.069 328.299 378.466 326.971 383.298 323.863C389.212 320.053 391.164 321.285 397.4 324.147C409.566 329.661 422.952 331.927 436.254 330.723V330.723Z" fill="black"/>
<path d="M549.49 321.884C541.579 324.947 533.623 328.022 525.338 329.846C511.448 332.909 496.915 332.425 483.134 335.926C475.855 337.783 468.62 340.774 461.14 340.168C457.797 339.898 454.569 338.879 451.316 338.105C433.039 333.592 412.263 335.056 397.42 346.661C392.343 350.626 388.188 355.571 384.419 360.845C383.613 361.984 383.067 363.287 382.823 364.661C382.578 366.036 382.64 367.447 383.004 368.795C383.367 370.143 384.024 371.394 384.927 372.458C385.83 373.522 386.957 374.373 388.226 374.951C393.999 377.608 400.182 379.258 406.51 379.832C414.968 380.58 423.466 379.38 431.879 378.181C444.365 376.408 456.856 374.629 469.309 372.637C473.78 371.921 478.251 371.18 482.748 370.612C515.108 366.518 548.054 371.496 580.497 368.078C583.776 367.73 587.113 367.279 590.096 365.88C597.646 362.334 601.383 352.986 599.824 344.772C598.265 336.558 592.248 329.73 585.007 325.54C578.938 322.013 572.393 320.588 565.635 319.092C559.36 317.629 555.533 319.563 549.49 321.884Z" fill="#AE6E79"/>
<path opacity="0.1" d="M618.893 272.782C622.462 277.463 623.222 283.742 622.836 289.603C622.449 295.463 621.058 301.259 620.852 307.146C620.568 315.218 622.514 323.264 622.185 331.31C621.953 336.938 620.62 342.457 619.041 347.86C617.18 354.236 614.487 361.09 608.605 364.152C600.797 368.22 584.42 365.931 576.206 369.116C576.954 364.455 584.118 357.705 584.865 353.043C585.38 349.82 585.902 346.506 585.348 343.276C584.639 339.156 582.224 335.501 579.357 332.458C574.796 327.616 568.843 323.973 562.304 322.787C555.765 321.6 539.756 322.574 534.525 326.707C533.88 322.439 545.863 318.325 550.076 317.403C552.177 316.933 554.586 317.197 556.267 315.862C559.489 313.335 557.15 308.3 557.305 304.257C557.427 301.034 559.308 298.081 559.688 294.857C560.333 289.7 556.97 284.445 558.29 279.384C558.78 277.514 559.869 275.87 560.622 274.091C562.916 268.643 561.911 262.428 560.687 256.638C559.927 253.002 559.186 248.902 561.209 245.8C563.083 242.906 568.405 253.215 571.813 252.738C583.068 251.158 593.253 242.809 602.343 249.643C606.975 253.124 607.58 256.735 609.429 261.706C611.227 266.438 615.885 268.862 618.893 272.782Z" fill="black"/>
<path d="M620.826 272.782C624.395 277.463 625.155 283.742 624.769 289.603C624.382 295.463 622.991 301.259 622.784 307.146C622.501 315.218 624.446 323.264 624.118 331.31C623.886 336.938 622.552 342.457 620.974 347.86C619.112 354.236 616.419 361.09 610.538 364.152C602.729 368.22 586.353 365.932 578.139 369.116C578.886 364.455 586.05 357.705 586.798 353.044C587.313 349.82 587.835 346.506 587.281 343.276C586.572 339.156 584.156 335.501 581.289 332.458C576.728 327.616 570.776 323.973 564.237 322.787C557.698 321.6 541.689 322.574 536.457 326.707C535.813 322.439 547.796 318.325 552.009 317.403C554.109 316.933 556.519 317.197 558.2 315.862C561.421 313.335 559.083 308.3 559.237 304.257C559.36 301.034 561.241 298.081 561.621 294.857C562.265 289.7 558.902 284.445 560.223 279.384C560.713 277.514 561.801 275.87 562.555 274.091C564.849 268.643 563.844 262.428 562.62 256.638C561.859 253.002 561.119 248.902 563.141 245.8C565.016 242.906 568.682 241.81 572.09 241.326C583.5 239.782 595.062 242.767 604.301 249.643C608.933 253.124 609.539 256.735 611.388 261.706C613.16 266.438 617.817 268.862 620.826 272.782Z" fill="#4C4981"/>
<path d="M194.558 242.235L229.585 371.786C230.014 373.373 230.917 374.791 232.173 375.852C233.428 376.913 234.977 377.566 236.613 377.724L394.269 392.881C395.554 393.005 396.85 392.819 398.048 392.339C399.247 391.858 400.312 391.098 401.157 390.12C402.001 389.143 402.599 387.977 402.9 386.721C403.201 385.465 403.198 384.155 402.889 382.901L364.532 226.633C364.075 224.775 362.975 223.14 361.428 222.017C359.88 220.895 357.985 220.358 356.079 220.502L201.728 232.055C200.543 232.147 199.393 232.5 198.359 233.088C197.326 233.676 196.435 234.485 195.751 235.458C195.066 236.43 194.604 237.541 194.398 238.713C194.191 239.884 194.246 241.087 194.558 242.235V242.235Z" fill="#9C9CA1"/>
<path d="M507.08 267.515C516.651 267.515 524.41 259.649 524.41 249.946C524.41 240.243 516.651 232.377 507.08 232.377C497.509 232.377 489.751 240.243 489.751 249.946C489.751 259.649 497.509 267.515 507.08 267.515Z" fill="white"/>
<path d="M521.312 217.897C521.312 217.897 524.964 228.767 514.186 233.338L512.808 235.749L519.559 242.416C519.559 242.416 527.883 227.219 526.981 221.823C526.981 221.823 525.692 216.343 521.312 217.897Z" fill="white"/>
<path d="M509.071 267.515C518.301 267.515 525.783 260.027 525.783 250.791C525.783 241.554 518.301 234.066 509.071 234.066C499.842 234.066 492.36 241.554 492.36 250.791C492.36 260.027 499.842 267.515 509.071 267.515Z" fill="#FA7D09"/>
<path d="M527.065 224.292L524.41 219.908L520.545 219.36C521.37 204.925 517.627 200.625 517.627 200.625L516.757 200.541L512.969 200.173L505.844 192.772V190.67C515.855 191.863 521.389 196.621 524.378 202.198C529.661 211.985 527.065 224.292 527.065 224.292Z" fill="#FA7D09"/>
<path opacity="0.1" d="M516.789 197.885V200.541L513.001 200.173L505.876 192.772C505.876 192.772 516.899 195.241 516.789 197.885Z" fill="black" stroke="#4C4981" stroke-miterlimit="10"/>
<path opacity="0.1" d="M527.064 224.293L524.41 219.908V202.224C529.661 211.985 527.064 224.293 527.064 224.293Z" fill="black" stroke="#4C4981" stroke-miterlimit="10"/>
<path d="M478.191 257.665C482.637 255.096 482.446 246.434 477.764 238.318C473.081 230.202 465.681 225.705 461.235 228.274C456.788 230.843 456.98 239.505 461.662 247.621C466.344 255.738 473.745 260.234 478.191 257.665Z" fill="white"/>
<path d="M472.221 241.552C476.905 249.669 482.651 255.091 478.206 257.67C473.761 260.249 460.812 258.959 456.128 250.836C451.445 242.712 455.697 231.494 460.142 228.915C464.587 226.336 467.531 233.415 472.221 241.552Z" fill="#FA7D09"/>
<path opacity="0.1" d="M513.922 183.075C513.922 209.013 496.187 234.008 470.269 234.008C457.822 234.008 445.885 229.06 437.083 220.252C428.282 211.444 423.337 199.497 423.337 187.04C423.337 174.584 428.282 162.637 437.083 153.829C445.885 145.021 457.822 140.072 470.269 140.072C496.187 140.098 513.922 157.132 513.922 183.075Z" fill="black"/>
<path d="M470.269 232.745C496.189 232.745 517.201 211.716 517.201 185.777C517.201 159.837 496.189 138.809 470.269 138.809C444.349 138.809 423.337 159.837 423.337 185.777C423.337 211.716 444.349 232.745 470.269 232.745Z" fill="#AE6E79"/>
<path d="M466.146 164.965C471.732 167.022 475.036 172.798 480.049 176.016C487.135 180.529 496.361 179.362 504.452 177.131C508.962 175.9 513.677 174.397 518.116 175.764C518.769 176.054 519.489 176.156 520.197 176.061C521.163 175.784 521.64 174.713 521.956 173.759C527.445 157.383 524.977 138.835 516.692 123.684C514.554 119.777 511.99 115.998 508.459 113.284C505.676 111.15 502.403 109.751 499.105 108.558C493.077 106.392 486.842 104.851 480.5 103.961C479.379 103.758 478.235 103.721 477.104 103.852C475.552 104.103 474.16 104.941 472.775 105.689C466.843 108.872 460.264 110.66 453.538 110.918C444.519 111.26 434.212 109.132 427.26 114.922C418.885 121.865 420.973 135.411 415.542 144.837C411.947 151.071 405.015 155.597 403.875 162.696C403.578 164.865 403.716 167.072 404.281 169.188C406.935 180.11 417.5 188.568 428.761 188.768C430.491 188.9 432.222 188.545 433.761 187.743C434.768 187.055 435.658 186.208 436.395 185.235C443.772 176.493 452.211 159.833 466.146 164.965Z" fill="#444053"/>
<path opacity="0.1" d="M521.956 169.008C521.64 169.962 521.163 171.032 520.197 171.309C519.489 171.405 518.769 171.302 518.116 171.013C513.677 169.646 508.936 171.148 504.458 172.379C496.36 174.61 487.116 175.803 480.055 171.264C475.036 168.04 471.738 162.238 466.146 160.213C452.211 155.056 443.772 171.741 436.376 180.484C435.639 181.456 434.749 182.303 433.741 182.992C432.203 183.794 430.471 184.149 428.742 184.017C417.519 183.817 406.948 175.358 404.261 164.436C404.113 163.792 403.984 163.147 403.888 162.502C403.888 162.56 403.888 162.612 403.855 162.67C403.558 164.839 403.696 167.047 404.261 169.162C406.915 180.084 417.487 188.543 428.742 188.742C430.471 188.874 432.203 188.519 433.741 187.717C434.749 187.029 435.639 186.182 436.376 185.209C443.772 176.467 452.211 159.807 466.146 164.939C471.738 166.996 475.036 172.773 480.055 175.99C487.141 180.503 496.36 179.336 504.458 177.105C508.968 175.874 513.677 174.372 518.116 175.738C518.769 176.028 519.489 176.13 520.197 176.035C521.163 175.758 521.64 174.688 521.956 173.733C524.17 167.033 525.148 159.985 524.842 152.935C524.652 158.403 523.68 163.815 521.956 169.008V169.008Z" fill="black"/>
</g>
<defs>
<clipPath id="clip0">
<rect width="737" height="398" fill="white"/>
</clipPath>
</defs>
</svg>
